<?xml version="1.0" encoding="UTF-8"?>
<svg width="64" height="64" viewBox="0 0 64 64" xmlns="http://www.w3.org/2000/svg">
  <!-- Brain outline -->
  <path d="M32 8 C42 8 50 16 50 26 C50 36 42 44 32 44 C22 44 14 36 14 26 C14 16 22 8 32 8"
        fill="#E3F2FD" stroke="#2196F3" stroke-width="2"/>
  
  <!-- Neural network connections -->
  <circle cx="32" cy="20" r="3" fill="#1E88E5"/>
  <circle cx="24" cy="28" r="3" fill="#1E88E5"/>
  <circle cx="40" cy="28" r="3" fill="#1E88E5"/>
  <circle cx="32" cy="36" r="3" fill="#1E88E5"/>
  
  <line x1="32" y1="20" x2="24" y2="28" stroke="#2196F3" stroke-width="2"/>
  <line x1="32" y1="20" x2="40" y2="28" stroke="#2196F3" stroke-width="2"/>
  <line x1="24" y1="28" x2="32" y2="36" stroke="#2196F3" stroke-width="2"/>
  <line x1="40" y1="28" x2="32" y2="36" stroke="#2196F3" stroke-width="2"/>
  
  <!-- Circuit patterns -->
  <path d="M18 48 L46 48" stroke="#00BCD4" stroke-width="2" stroke-dasharray="4,4"/>
  <path d="M22 52 L42 52" stroke="#00BCD4" stroke-width="2" stroke-dasharray="4,4"/>
  <path d="M26 56 L38 56" stroke="#00BCD4" stroke-width="2" stroke-dasharray="4,4"/>
</svg> 